{
  "accessors": [
    {
      "bufferView": 2,
      "componentType": 5126,
      "count": 34541,
      "max": [
        103.23310089111328,
        103.77560424804688,
        148.765380859375
      ],
      "min": [
        0.048892974853515625,
        45.445503234863281,
        8.3494110107421875
      ],
      "type": "VEC3"
    },
    {
      "bufferView": 2,
      "byteOffset": 414492,
      "componentType": 5126,
      "count": 34541,
      "max": [
        0.99992996454238892,
        0.99999910593032837,
        0.99995619058609009
      ],
      "min": [
        -0.99974691867828369,
        -0.99990057945251465,
        -0.9999997615814209
      ],
      "type": "VEC3"
    },
    {
      "bufferView": 3,
      "componentType": 5126,
      "count": 34541,
      "max": [
        0.88155984878540039,
        0.99999552965164185,
        0.99996930360794067,
        1
      ],
      "min": [
        -0.8862382173538208,
        -0.99983054399490356,
        -0.99992012977600098,
        1
      ],
      "type": "VEC4"
    },
    {
      "bufferView": 1,
      "componentType": 5126,
      "count": 34541,
      "max": [
        0.81628000736236572,
        0.89840000867843628
      ],
      "min": [
        0.0019499999471008778,
        0.45122000575065613
      ],
      "type": "VEC2"
    },
    {
      "bufferView": 0,
      "componentType": 5125,
      "count": 202464,
      "max": [
        34540
      ],
      "min": [
        0
      ],
      "type": "SCALAR"
    },
    {
      "bufferView": 2,
      "byteOffset": 828984,
      "componentType": 5126,
      "count": 10364,
      "max": [
        41.458824157714844,
        59.528579711914062,
        172.35340881347656
      ],
      "min": [
        0.0014190673828125,
        42.776290893554688,
        70.316322326660156
      ],
      "type": "VEC3"
    },
    {
      "bufferView": 2,
      "byteOffset": 953352,
      "componentType": 5126,
      "count": 10364,
      "max": [
        0.99999159574508667,
        0.99996572732925415,
        0.99995720386505127
      ],
      "min": [
        -0.9999852180480957,
        -0.71967339515686035,
        -0.99880814552307129
      ],
      "type": "VEC3"
    },
    {
      "bufferView": 3,
      "byteOffset": 552656,
      "componentType": 5126,
      "count": 10364,
      "max": [
        0.99984818696975708,
        0.57323455810546875,
        0.99997901916503906,
        1
      ],
      "min": [
        -0.78327906131744385,
        -0.99998480081558228,
        -0.99341094493865967,
        1
      ],
      "type": "VEC4"
    },
    {
      "bufferView": 1,
      "byteOffset": 276328,
      "componentType": 5126,
      "count": 10364,
      "max": [
        0.74484002590179443,
        0.94682002067565918
      ],
      "min": [
        0.0050499998033046722,
        0.58755999803543091
      ],
      "type": "VEC2"
    },
    {
      "bufferView": 0,
      "byteOffset": 809856,
      "componentType": 5125,
      "count": 60480,
      "max": [
        10363
      ],
      "min": [
        0
      ],
      "type": "SCALAR"
    },
    {
      "bufferView": 2,
      "byteOffset": 1077720,
      "componentType": 5126,
      "count": 34051,
      "max": [
        103.25489807128906,
        57.37139892578125,
        147.76593017578125
      ],
      "min": [
        0,
        0,
        8.3362503051757812
      ],
      "type": "VEC3"
    },
    {
      "bufferView": 2,
      "byteOffset": 1486332,
      "componentType": 5126,
      "count": 34051,
      "max": [
        0.99998772144317627,
        0.9999995231628418,
        0.99986481666564941
      ],
      "min": [
        -0.99994248151779175,
        -0.99999189376831055,
        -0.99997556209564209
      ],
      "type": "VEC3"
    },
    {
      "bufferView": 3,
      "byteOffset": 718480,
      "componentType": 5126,
      "count": 34051,
      "max": [
        0.8871651291847229,
        0.99968141317367554,
        0.99999624490737915,
        1
      ],
      "min": [
        -0.96241503953933716,
        -0.99968886375427246,
        -0.99999344348907471,
        1
      ],
      "type": "VEC4"
    },
    {
      "bufferView": 1,
      "byteOffset": 359240,
      "componentType": 5126,
      "count": 34051,
      "max": [
        0.83473998308181763,
        0.44723999500274658
      ],
      "min": [
        0.0019499999471008778,
        0.0019499999471008778
      ],
      "type": "VEC2"
    },
    {
      "bufferView": 0,
      "byteOffset": 1051776,
      "componentType": 5125,
      "count": 199872,
      "max": [
        34050
      ],
      "min": [
        0
      ],
      "type": "SCALAR"
    },
    {
      "bufferView": 2,
      "byteOffset": 1894944,
      "componentType": 5126,
      "count": 32206,
      "max": [
        84.540840148925781,
        84.137405395507812,
        10.098709106445312
      ],
      "min": [
        20.827825546264648,
        21.419326782226562,
        0
      ],
      "type": "VEC3"
    },
    {
      "bufferView": 2,
      "byteOffset": 2281416,
      "componentType": 5126,
      "count": 32206,
      "max": [
        0.99999397993087769,
        0.99997252225875854,
        0.99999469518661499
      ],
      "min": [
        -0.99994963407516479,
        -0.99980366230010986,
        -0.99999958276748657
      ],
      "type": "VEC3"
    },
    {
      "bufferView": 3,
      "byteOffset": 1263296,
      "componentType": 5126,
      "count": 32206,
      "max": [
        0.8626900315284729,
        0.95956647396087646,
        0.9999881386756897,
        1
      ],
      "min": [
        -0.88346564769744873,
        -0.99991071224212646,
        -0.99995023012161255,
        1
      ],
      "type": "VEC4"
    },
    {
      "bufferView": 1,
      "byteOffset": 631648,
      "componentType": 5126,
      "count": 32206,
      "max": [
        0.95794999599456787,
        0.95967000722885132
      ],
      "min": [
        0.73860001564025879,
        0.41839998960494995
      ],
      "type": "VEC2"
    },
    {
      "bufferView": 0,
      "byteOffset": 1851264,
      "componentType": 5125,
      "count": 190752,
      "max": [
        32205
      ],
      "min": [
        0
      ],
      "type": "SCALAR"
    },
    {
      "bufferView": 2,
      "byteOffset": 2667888,
      "componentType": 5126,
      "count": 7417,
      "max": [
        41.112968444824219,
        47.763717651367188,
        172.32978820800781
      ],
      "min": [
        0.10956573486328125,
        34.337005615234375,
        68.631698608398438
      ],
      "type": "VEC3"
    },
    {
      "bufferView": 2,
      "byteOffset": 2756892,
      "componentType": 5126,
      "count": 7417,
      "max": [
        0.99976861476898193,
        0.2813933789730072,
        0.99071049690246582
      ],
      "min": [
        -0.99936062097549438,
        -0.99999165534973145,
        -0.99937844276428223
      ],
      "type": "VEC3"
    },
    {
      "bufferView": 3,
      "byteOffset": 1778592,
      "componentType": 5126,
      "count": 7417,
      "max": [
        0.93592381477355957,
        0.96808189153671265,
        0.99905705451965332,
        1
      ],
      "min": [
        -0.99977558851242065,
        -0.99726569652557373,
        -0.55253380537033081,
        1
      ],
      "type": "VEC4"
    },
    {
      "bufferView": 1,
      "byteOffset": 889296,
      "componentType": 5126,
      "count": 7417,
      "max": [
        0.99804002046585083,
        0.91995000839233398
      ],
      "min": [
        0.56922000646591187,
        0.0055700000375509262
      ],
      "type": "VEC2"
    },
    {
      "bufferView": 0,
      "byteOffset": 2614272,
      "componentType": 5125,
      "count": 42816,
      "max": [
        7416
      ],
      "min": [
        0
      ],
      "type": "SCALAR"
    }
  ],
  "asset": {
    "extras": {
      "author": "Musée Saint-Raymond (https://sketchfab.com/museesaintraymond)",
      "license": "CC-BY-SA-4.0 (http://creativecommons.org/licenses/by-sa/4.0/)",
      "source": "https://sketchfab.com/models/2a023ed278574fa385ee4d08c5b392e8",
      "title": "Vase aryballisque à figures rouges"
    },
    "generator": "Sketchfab-3.19.4",
    "version": "2.0"
  },
  "bufferViews": [
    {
      "buffer": 0,
      "byteLength": 2785536,
      "byteOffset": 0,
      "name": "floatBufferViews",
      "target": 34963
    },
    {
      "buffer": 0,
      "byteLength": 948632,
      "byteOffset": 2785536,
      "byteStride": 8,
      "name": "floatBufferViews",
      "target": 34962
    },
    {
      "buffer": 0,
      "byteLength": 2845896,
      "byteOffset": 3734168,
      "byteStride": 12,
      "name": "floatBufferViews",
      "target": 34962
    },
    {
      "buffer": 0,
      "byteLength": 1897264,
      "byteOffset": 6580064,
      "byteStride": 16,
      "name": "floatBufferViews",
      "target": 34962
    }
  ],
  "buffers": [
    {
      "byteLength": 8477328,
      "uri": "scene.bin"
    }
  ],
  "images": [
    {
      "uri": "textures/defaultMat_metallicRoughness.png"
    },
    {
      "uri": "textures/defaultMat_normal.png"
    },
    {
      "uri": "textures/defaultMat_baseColor.jpeg"
    }
  ],
  "materials": [
    {
      "doubleSided": true,
      "emissiveFactor": [
        0,
        0,
        0
      ],
      "name": "defaultMat",
      "normalTexture": {
        "index": 1,
        "scale": 1,
        "texCoord": 0
      },
      "occlusionTexture": {
        "index": 0,
        "strength": 1,
        "texCoord": 0
      },
      "pbrMetallicRoughness": {
        "baseColorFactor": [
          1,
          1,
          1,
          1
        ],
        "baseColorTexture": {
          "index": 2,
          "texCoord": 0
        },
        "metallicFactor": 0,
        "roughnessFactor": 0.59999999999999998
      }
    }
  ],
  "meshes": [
    {
      "primitives": [
        {
          "attributes": {
            "NORMAL": 1,
            "POSITION": 0,
            "TANGENT": 2,
            "TEXCOORD_0": 3
          },
          "indices": 4,
          "material": 0,
          "mode": 4
        }
      ]
    },
    {
      "primitives": [
        {
          "attributes": {
            "NORMAL": 6,
            "POSITION": 5,
            "TANGENT": 7,
            "TEXCOORD_0": 8
          },
          "indices": 9,
          "material": 0,
          "mode": 4
        }
      ]
    },
    {
      "primitives": [
        {
          "attributes": {
            "NORMAL": 11,
            "POSITION": 10,
            "TANGENT": 12,
            "TEXCOORD_0": 13
          },
          "indices": 14,
          "material": 0,
          "mode": 4
        }
      ]
    },
    {
      "primitives": [
        {
          "attributes": {
            "NORMAL": 16,
            "POSITION": 15,
            "TANGENT": 17,
            "TEXCOORD_0": 18
          },
          "indices": 19,
          "material": 0,
          "mode": 4
        }
      ]
    },
    {
      "primitives": [
        {
          "attributes": {
            "NORMAL": 21,
            "POSITION": 20,
            "TANGENT": 22,
            "TEXCOORD_0": 23
          },
          "indices": 24,
          "material": 0,
          "mode": 4
        }
      ]
    }
  ],
  "nodes": [
    {
      "children": [
        1
      ],
      "name": "RootNode (gltf orientation matrix)",
      "rotation": [
        -0.70710678118654746,
        -0,
        -0,
        0.70710678118654757
      ]
    },
    {
      "children": [
        2
      ],
      "name": "RootNode (model correction matrix)"
    },
    {
      "children": [
        3
      ],
      "matrix": [
        1,
        0,
        0,
        0,
        0,
        1,
        0,
        0,
        0,
        0,
        1,
        0,
        -43.361141204833984,
        -31.394763946533203,
        -72.932960510253906,
        1
      ],
      "name": "zbrush_concat.osgb.cleaner.gles"
    },
    {
      "children": [
        4,
        5,
        6,
        7,
        8
      ],
      "name": "/sketchfab-data/processing/70ee97f9982c472285ebd4c66addc39f/preprocess/SubTool-0-11420621.OBJ"
    },
    {
      "mesh": 0,
      "name": ""
    },
    {
      "mesh": 1,
      "name": ""
    },
    {
      "mesh": 2,
      "name": ""
    },
    {
      "mesh": 3,
      "name": ""
    },
    {
      "mesh": 4,
      "name": ""
    }
  ],
  "samplers": [
    {
      "magFilter": 9729,
      "minFilter": 9987,
      "wrapS": 10497,
      "wrapT": 10497
    }
  ],
  "scene": 0,
  "scenes": [
    {
      "name": "OSG_Scene",
      "nodes": [
        0
      ]
    }
  ],
  "textures": [
    {
      "sampler": 0,
      "source": 0
    },
    {
      "sampler": 0,
      "source": 1
    },
    {
      "sampler": 0,
      "source": 2
    }
  ]
}

