{
  "accessors": [
    {
      "bufferView": 2,
      "componentType": 5126,
      "count": 65532,
      "max": [
        8.0360193252563477,
        7.237421989440918,
        5.8159332275390625
      ],
      "min": [
        -7.6508049964904785,
        -7.450282096862793,
        -7.7003898620605469
      ],
      "type": "VEC3"
    },
    {
      "bufferView": 2,
      "byteOffset": 786384,
      "componentType": 5126,
      "count": 65532,
      "max": [
        0.99986457824707031,
        0.99999797344207764,
        0.98671674728393555
      ],
      "min": [
        -0.99987459182739258,
        -0.99997013807296753,
        -0.99997878074645996
      ],
      "type": "VEC3"
    },
    {
      "bufferView": 3,
      "componentType": 5126,
      "count": 65532,
      "max": [
        0.99989068508148193,
        0.99994820356369019,
        0.99996674060821533,
        1
      ],
      "min": [
        -0.99997943639755249,
        -0.99891781806945801,
        -0.99990749359130859,
        -1
      ],
      "type": "VEC4"
    },
    {
      "bufferView": 1,
      "componentType": 5126,
      "count": 65532,
      "max": [
        0.99926799535751343,
        0.99914199113845825
      ],
      "min": [
        0.0075679998844861984,
        0.00073600001633167267
      ],
      "type": "VEC2"
    },
    {
      "bufferView": 0,
      "componentType": 5125,
      "count": 350967,
      "max": [
        65531
      ],
      "min": [
        0
      ],
      "type": "SCALAR"
    },
    {
      "bufferView": 2,
      "byteOffset": 1572768,
      "componentType": 5126,
      "count": 65532,
      "max": [
        6.0456228256225586,
        7.1229248046875,
        8.7649621963500977
      ],
      "min": [
        -6.6304798126220703,
        -21.864974975585938,
        -7.9100608825683594
      ],
      "type": "VEC3"
    },
    {
      "bufferView": 2,
      "byteOffset": 2359152,
      "componentType": 5126,
      "count": 65532,
      "max": [
        0.99993789196014404,
        0.99950098991394043,
        0.99997514486312866
      ],
      "min": [
        -0.99971675872802734,
        -0.99999547004699707,
        -0.99999648332595825
      ],
      "type": "VEC3"
    },
    {
      "bufferView": 3,
      "byteOffset": 1048512,
      "componentType": 5126,
      "count": 65532,
      "max": [
        0.99926894903182983,
        0.99998998641967773,
        0.9999968409538269,
        1
      ],
      "min": [
        -0.99950146675109863,
        -0.99987894296646118,
        -0.99936378002166748,
        -1
      ],
      "type": "VEC4"
    },
    {
      "bufferView": 1,
      "byteOffset": 524256,
      "componentType": 5126,
      "count": 65532,
      "max": [
        0.99926799535751343,
        0.99877399206161499
      ],
      "min": [
        0.00073199998587369919,
        0.00073600001633167267
      ],
      "type": "VEC2"
    },
    {
      "bufferView": 0,
      "byteOffset": 1403868,
      "componentType": 5125,
      "count": 347379,
      "max": [
        65531
      ],
      "min": [
        0
      ],
      "type": "SCALAR"
    },
    {
      "bufferView": 2,
      "byteOffset": 3145536,
      "componentType": 5126,
      "count": 65532,
      "max": [
        8.9324550628662109,
        -7.2027449607849121,
        8.6375541687011719
      ],
      "min": [
        -8.6508197784423828,
        -19.8323974609375,
        -8.8632335662841797
      ],
      "type": "VEC3"
    },
    {
      "bufferView": 2,
      "byteOffset": 3931920,
      "componentType": 5126,
      "count": 65532,
      "max": [
        0.99992722272872925,
        0.99835121631622314,
        0.99994701147079468
      ],
      "min": [
        -0.99997550249099731,
        -0.99999862909317017,
        -0.99999511241912842
      ],
      "type": "VEC3"
    },
    {
      "bufferView": 3,
      "byteOffset": 2097024,
      "componentType": 5126,
      "count": 65532,
      "max": [
        0.9999234676361084,
        0.99996286630630493,
        0.99400109052658081,
        1
      ],
      "min": [
        -0.99999737739562988,
        -0.99982953071594238,
        -0.99953597784042358,
        -1
      ],
      "type": "VEC4"
    },
    {
      "bufferView": 1,
      "byteOffset": 1048512,
      "componentType": 5126,
      "count": 65532,
      "max": [
        0.99926799535751343,
        0.99705702066421509
      ],
      "min": [
        0.00073199998587369919,
        0.00073600001633167267
      ],
      "type": "VEC2"
    },
    {
      "bufferView": 0,
      "byteOffset": 2793384,
      "componentType": 5125,
      "count": 360897,
      "max": [
        65531
      ],
      "min": [
        0
      ],
      "type": "SCALAR"
    },
    {
      "bufferView": 2,
      "byteOffset": 4718304,
      "componentType": 5126,
      "count": 65532,
      "max": [
        8.9275941848754883,
        7.2195949554443359,
        6.840141773223877
      ],
      "min": [
        -1.5929520130157471,
        -19.593027114868164,
        -6.6317028999328613
      ],
      "type": "VEC3"
    },
    {
      "bufferView": 2,
      "byteOffset": 5504688,
      "componentType": 5126,
      "count": 65532,
      "max": [
        0.99999153614044189,
        0.99999898672103882,
        0.99999701976776123
      ],
      "min": [
        -0.99980747699737549,
        -0.99999213218688965,
        -0.99957561492919922
      ],
      "type": "VEC3"
    },
    {
      "bufferView": 3,
      "byteOffset": 3145536,
      "componentType": 5126,
      "count": 65532,
      "max": [
        0.9988398551940918,
        0.99998611211776733,
        0.95696002244949341,
        1
      ],
      "min": [
        -0.99966204166412354,
        -0.96802407503128052,
        -0.99998748302459717,
        -1
      ],
      "type": "VEC4"
    },
    {
      "bufferView": 1,
      "byteOffset": 1572768,
      "componentType": 5126,
      "count": 65532,
      "max": [
        0.99926799535751343,
        0.99926400184631348
      ],
      "min": [
        0.00073199998587369919,
        0.0082160001620650291
      ],
      "type": "VEC2"
    },
    {
      "bufferView": 0,
      "byteOffset": 4236972,
      "componentType": 5125,
      "count": 343941,
      "max": [
        65531
      ],
      "min": [
        0
      ],
      "type": "SCALAR"
    },
    {
      "bufferView": 2,
      "byteOffset": 6291072,
      "componentType": 5126,
      "count": 65532,
      "max": [
        6.029181957244873,
        0.049380000680685043,
        5.7715291976928711
      ],
      "min": [
        -8.4732227325439453,
        -19.867729187011719,
        -8.9104471206665039
      ],
      "type": "VEC3"
    },
    {
      "bufferView": 2,
      "byteOffset": 7077456,
      "componentType": 5126,
      "count": 65532,
      "max": [
        0.99993234872817993,
        0.99977153539657593,
        0.99997460842132568
      ],
      "min": [
        -0.99996989965438843,
        -0.99998575448989868,
        -0.99999862909317017
      ],
      "type": "VEC3"
    },
    {
      "bufferView": 3,
      "byteOffset": 4194048,
      "componentType": 5126,
      "count": 65532,
      "max": [
        0.99969768524169922,
        0.99998897314071655,
        0.99984139204025269,
        1
      ],
      "min": [
        -0.99998342990875244,
        -0.99996083974838257,
        -0.99998652935028076,
        -1
      ],
      "type": "VEC4"
    },
    {
      "bufferView": 1,
      "byteOffset": 2097024,
      "componentType": 5126,
      "count": 65532,
      "max": [
        0.99926799535751343,
        0.99877399206161499
      ],
      "min": [
        0.00073199998587369919,
        0.00073600001633167267
      ],
      "type": "VEC2"
    },
    {
      "bufferView": 0,
      "byteOffset": 5612736,
      "componentType": 5125,
      "count": 347418,
      "max": [
        65531
      ],
      "min": [
        0
      ],
      "type": "SCALAR"
    },
    {
      "bufferView": 2,
      "byteOffset": 7863840,
      "componentType": 5126,
      "count": 3322,
      "max": [
        -4.9237790107727051,
        -14.398381233215332,
        -1.54038405418396
      ],
      "min": [
        -6.9522490501403809,
        -19.722831726074219,
        -7.0530848503112793
      ],
      "type": "VEC3"
    },
    {
      "bufferView": 2,
      "byteOffset": 7903704,
      "componentType": 5126,
      "count": 3322,
      "max": [
        0.9997672438621521,
        0.99511247873306274,
        0.98953735828399658
      ],
      "min": [
        -0.88693511486053467,
        -0.99989175796508789,
        -0.99987637996673584
      ],
      "type": "VEC3"
    },
    {
      "bufferView": 3,
      "byteOffset": 5242560,
      "componentType": 5126,
      "count": 3322,
      "max": [
        0.94437217712402344,
        0.9995802640914917,
        0.90369731187820435,
        1
      ],
      "min": [
        -0.96235579252243042,
        -0.96535748243331909,
        -0.96706342697143555,
        1
      ],
      "type": "VEC4"
    },
    {
      "bufferView": 1,
      "byteOffset": 2621280,
      "componentType": 5126,
      "count": 3322,
      "max": [
        0.9986569881439209,
        0.9865109920501709
      ],
      "min": [
        0.0058590001426637173,
        0.0035560000687837601
      ],
      "type": "VEC2"
    },
    {
      "bufferView": 0,
      "byteOffset": 7002408,
      "componentType": 5125,
      "count": 16569,
      "max": [
        3321
      ],
      "min": [
        0
      ],
      "type": "SCALAR"
    }
  ],
  "asset": {
    "extras": {
      "author": "Geoffrey Marchal (https://sketchfab.com/geoffreymarchal)",
      "license": "CC-BY-NC-4.0 (http://creativecommons.org/licenses/by-nc/4.0/)",
      "source": "https://sketchfab.com/models/b5db5a0155c34a6ca0981e08957b5443",
      "title": "Empire vase"
    },
    "generator": "Sketchfab-3.18.7",
    "version": "2.0"
  },
  "bufferViews": [
    {
      "buffer": 0,
      "byteLength": 7068684,
      "byteOffset": 0,
      "name": "floatBufferViews",
      "target": 34963
    },
    {
      "buffer": 0,
      "byteLength": 2647856,
      "byteOffset": 7068684,
      "byteStride": 8,
      "name": "floatBufferViews",
      "target": 34962
    },
    {
      "buffer": 0,
      "byteLength": 7943568,
      "byteOffset": 9716540,
      "byteStride": 12,
      "name": "floatBufferViews",
      "target": 34962
    },
    {
      "buffer": 0,
      "byteLength": 5295712,
      "byteOffset": 17660108,
      "byteStride": 16,
      "name": "floatBufferViews",
      "target": 34962
    }
  ],
  "buffers": [
    {
      "byteLength": 22955820,
      "uri": "scene.bin"
    }
  ],
  "images": [
    {
      "uri": "textures/Material_0_baseColor.jpeg"
    }
  ],
  "materials": [
    {
      "doubleSided": true,
      "name": "Material_0",
      "pbrMetallicRoughness": {
        "baseColorFactor": [
          1,
          1,
          1,
          1
        ],
        "baseColorTexture": {
          "index": 0,
          "texCoord": 0
        },
        "metallicFactor": 0,
        "roughnessFactor": 1
      }
    }
  ],
  "meshes": [
    {
      "primitives": [
        {
          "attributes": {
            "NORMAL": 1,
            "POSITION": 0,
            "TANGENT": 2,
            "TEXCOORD_0": 3
          },
          "indices": 4,
          "material": 0,
          "mode": 4
        }
      ]
    },
    {
      "primitives": [
        {
          "attributes": {
            "NORMAL": 6,
            "POSITION": 5,
            "TANGENT": 7,
            "TEXCOORD_0": 8
          },
          "indices": 9,
          "material": 0,
          "mode": 4
        }
      ]
    },
    {
      "primitives": [
        {
          "attributes": {
            "NORMAL": 11,
            "POSITION": 10,
            "TANGENT": 12,
            "TEXCOORD_0": 13
          },
          "indices": 14,
          "material": 0,
          "mode": 4
        }
      ]
    },
    {
      "primitives": [
        {
          "attributes": {
            "NORMAL": 16,
            "POSITION": 15,
            "TANGENT": 17,
            "TEXCOORD_0": 18
          },
          "indices": 19,
          "material": 0,
          "mode": 4
        }
      ]
    },
    {
      "primitives": [
        {
          "attributes": {
            "NORMAL": 21,
            "POSITION": 20,
            "TANGENT": 22,
            "TEXCOORD_0": 23
          },
          "indices": 24,
          "material": 0,
          "mode": 4
        }
      ]
    },
    {
      "primitives": [
        {
          "attributes": {
            "NORMAL": 26,
            "POSITION": 25,
            "TANGENT": 27,
            "TEXCOORD_0": 28
          },
          "indices": 29,
          "material": 0,
          "mode": 4
        }
      ]
    }
  ],
  "nodes": [
    {
      "children": [
        1
      ],
      "name": "RootNode (gltf orientation matrix)",
      "rotation": [
        -0.70710678118654746,
        -0,
        -0,
        0.70710678118654757
      ]
    },
    {
      "children": [
        2
      ],
      "matrix": [
        0.66241508722305298,
        -0.74913698434829712,
        0,
        0,
        0,
        0,
        -1,
        0,
        0.74913698434829712,
        0.66241508722305298,
        0,
        0,
        0.10203059017658234,
        -7.1601285934448242,
        -7.3865456581115723,
        1
      ],
      "name": "RootNode (model correction matrix)"
    },
    {
      "children": [
        3,
        4,
        5,
        6,
        7,
        8
      ],
      "name": "vase empire.obj.cleaner.materialmerger.gles"
    },
    {
      "mesh": 0,
      "name": ""
    },
    {
      "mesh": 1,
      "name": ""
    },
    {
      "mesh": 2,
      "name": ""
    },
    {
      "mesh": 3,
      "name": ""
    },
    {
      "mesh": 4,
      "name": ""
    },
    {
      "mesh": 5,
      "name": ""
    }
  ],
  "samplers": [
    {
      "magFilter": 9729,
      "minFilter": 9987,
      "wrapS": 10497,
      "wrapT": 10497
    }
  ],
  "scene": 0,
  "scenes": [
    {
      "name": "OSG_Scene",
      "nodes": [
        0
      ]
    }
  ],
  "textures": [
    {
      "sampler": 0,
      "source": 0
    }
  ]
}

